<svg xmlns="http://www.w3.org/2000/svg" width="512" height="512" viewBox="0 0 512 512" version="1.1"><path d="" stroke="none" fill="#dc4c6c" fill-rule="evenodd"/><path d="M 197 45.091 C 156.109 49.994, 121.840 78.036, 109.705 116.524 C 104.302 133.660, 103.563 157.019, 107.904 173.408 C 117.541 209.788, 145.889 238.158, 182.592 248.155 C 189.143 249.939, 193.416 250.325, 207.500 250.404 C 227.901 250.519, 236.594 248.701, 252.642 240.961 C 277.895 228.782, 296.253 208.570, 305.284 183 C 310.267 168.891, 311.553 161.196, 311.383 146.500 C 311.055 118.193, 300.702 94.216, 280.080 74 C 269.084 63.221, 258.646 56.462, 245.242 51.441 C 229.783 45.651, 211.928 43.301, 197 45.091 M 471 133.172 C 468.321 133.931, 459.403 142.234, 432.975 168.575 L 398.450 202.986 387.975 192.467 C 376.191 180.632, 371.844 178, 364.085 178 C 355.495 178, 347.485 183.202, 344.286 190.859 C 342.207 195.834, 342.472 204.059, 344.859 208.650 C 347.285 213.316, 385.198 251.153, 389.700 253.402 C 393.829 255.464, 403.168 255.464, 407.300 253.403 C 411.715 251.201, 495.675 167.383, 498.067 162.790 C 500.405 158.303, 500.637 149.459, 498.548 144.461 C 496.658 139.936, 490.426 134.243, 486 132.997 C 481.696 131.785, 475.647 131.855, 471 133.172 M 95.500 270.583 C 80.795 274.113, 75.537 276.427, 66.812 283.210 C 59.466 288.921, 53.632 295.982, 50.048 303.500 C 48.474 306.800, 39.383 333.800, 29.844 363.500 L 12.500 417.500 12.525 428 C 12.548 437.565, 12.812 439.034, 15.492 444.500 C 21.335 456.422, 32.715 464.771, 46.086 466.947 C 54.093 468.250, 363.023 468.294, 370.794 466.993 C 383.705 464.831, 395.434 455.708, 401.233 443.315 C 403.970 437.467, 404.391 435.461, 404.442 428.041 C 404.496 420.134, 403.995 417.941, 397.693 398.500 C 393.950 386.950, 390.488 376.375, 390.001 375 C 389.513 373.625, 385.897 362.375, 381.964 350 C 369.009 309.234, 368.061 306.557, 364.264 300 C 355.959 285.659, 340.919 275.001, 323.866 271.374 C 312.390 268.934, 304.165 269.910, 286 275.868 C 259.651 284.511, 242.121 287.741, 216.417 288.691 C 185.316 289.840, 159.248 285.821, 127.513 274.986 C 117.866 271.692, 113.768 270.816, 106.513 270.498 C 101.556 270.281, 96.600 270.319, 95.500 270.583" stroke="none" fill="#dc446c" fill-rule="evenodd"/></svg>