<svg xmlns="http://www.w3.org/2000/svg" width="512" height="512" viewBox="0 0 512 512" version="1.1"><path d="M 2.189 93.039 C -3.371 98.219, -10.565 88.428, 125.337 260.658 C 213.553 372.456, 251.463 419.779, 253.337 420.443 C 255.005 421.034, 257.001 421.034, 258.679 420.443 C 260.578 419.774, 297.963 373.100, 387.179 260.016 C 498.871 118.442, 513 100.147, 513 97.100 C 513 95.212, 512.727 93.940, 512.394 94.273 C 512.060 94.607, 510.850 94.007, 509.705 92.940 C 507.656 91.031, 503.637 91, 256 91 L 4.377 91 2.189 93.039 M 0.252 98.500 C 0.263 100.700, 0.468 101.482, 0.707 100.238 C 0.946 98.994, 0.937 97.194, 0.687 96.238 C 0.437 95.282, 0.241 96.300, 0.252 98.500" stroke="none" fill="#fffcfc" fill-rule="evenodd"/><path d="" stroke="none" fill="#fcfcfc" fill-rule="evenodd"/></svg>