<svg xmlns="http://www.w3.org/2000/svg" width="512" height="512" viewBox="0 0 512 512" version="1.1"><path d="M 14.783 9.689 C 8.781 15.015, 6.970 17.160, 4.641 21.700 C 2.050 26.752, 2.753 26.976, 5.581 22 C 8.584 16.713, 12.973 11.878, 18.400 7.876 C 20.545 6.294, 21.798 5, 21.183 5 C 20.569 5, 17.689 7.110, 14.783 9.689 M 499 12.500 C 503.474 17.059, 505.381 18.426, 502.872 15.277 C 500.586 12.407, 495.974 8, 495.257 8 C 494.887 8, 496.571 10.025, 499 12.500 M 505.638 20.500 C 507.950 24.448, 508 24.507, 508 23.277 C 508 22.697, 507.073 21.159, 505.941 19.861 L 503.881 17.500 505.638 20.500 M 232.655 32 C 232.996 33.925, 233.655 36.175, 234.120 37 C 234.629 37.903, 234.719 37.107, 234.345 35 C 234.004 33.075, 233.345 30.825, 232.880 30 C 232.371 29.097, 232.281 29.893, 232.655 32 M 277.625 35.125 C 276.791 39.293, 277.599 40.101, 278.500 36 C 278.880 34.271, 278.982 32.649, 278.727 32.394 C 278.472 32.139, 277.976 33.368, 277.625 35.125 M 0.232 39 C 0.232 40.925, 0.438 41.712, 0.689 40.750 C 0.941 39.788, 0.941 38.212, 0.689 37.250 C 0.438 36.288, 0.232 37.075, 0.232 39 M 511.232 39 C 511.232 40.925, 511.438 41.712, 511.689 40.750 C 511.941 39.788, 511.941 38.212, 511.689 37.250 C 511.438 36.288, 511.232 37.075, 511.232 39 M 277.476 117 C 277.476 159.625, 277.599 177.063, 277.750 155.750 C 277.900 134.438, 277.900 99.563, 277.750 78.250 C 277.599 56.938, 277.476 74.375, 277.476 117 M 234.476 117.500 C 234.476 159.850, 234.599 177.029, 234.750 155.676 C 234.900 134.323, 234.900 99.673, 234.750 78.676 C 234.599 57.679, 234.476 75.150, 234.476 117.500 M 511.259 196.590 C 511.290 198.840, 510.993 201.203, 510.599 201.840 C 510.204 202.478, 510.118 203, 510.406 203 C 511.855 203, 512.754 199.085, 512.019 195.968 L 511.202 192.500 511.259 196.590 M 222.405 221.146 C 221.357 222.327, 218.745 224.577, 216.600 226.146 C 214.455 227.716, 213.169 229, 213.742 229 C 215.082 229, 222.418 223.036, 223.890 220.750 C 225.430 218.358, 224.709 218.551, 222.405 221.146 M 287.615 220.440 C 287.919 221.232, 289.368 222.644, 290.834 223.578 C 293.489 225.268, 293.487 225.262, 290.563 222.138 C 287.273 218.623, 286.818 218.361, 287.615 220.440 M 15 225.500 C 15.685 226.325, 16.695 227, 17.245 227 C 17.803 227, 17.694 226.337, 17 225.500 C 16.315 224.675, 15.305 224, 14.755 224 C 14.197 224, 14.306 224.663, 15 225.500 M 30 232.986 C 30.825 233.527, 32.587 233.976, 33.917 233.985 C 37.126 234.005, 36.313 233.436, 32 232.645 C 29.538 232.193, 28.945 232.294, 30 232.986 M 478.500 233 C 475.732 233.704, 475.694 233.771, 478 233.866 C 479.375 233.923, 481.175 233.533, 482 233 C 483.702 231.900, 482.822 231.900, 478.500 233 M 78.250 234.750 C 99.563 234.900, 134.438 234.900, 155.750 234.750 C 177.063 234.599, 159.625 234.476, 117 234.476 C 74.375 234.476, 56.938 234.599, 78.250 234.750 M 356.250 234.750 C 377.563 234.900, 412.438 234.900, 433.750 234.750 C 455.063 234.599, 437.625 234.476, 395 234.476 C 352.375 234.476, 334.938 234.599, 356.250 234.750 M 34 278 C 31.990 278.644, 31.892 278.806, 33.500 278.830 C 34.600 278.846, 36.400 278.473, 37.500 278 C 40.048 276.905, 37.419 276.905, 34 278 M 78.250 277.750 C 99.563 277.900, 134.438 277.900, 155.750 277.750 C 177.063 277.599, 159.625 277.476, 117 277.476 C 74.375 277.476, 56.938 277.599, 78.250 277.750 M 356.250 277.750 C 377.563 277.900, 412.438 277.900, 433.750 277.750 C 455.063 277.599, 437.625 277.476, 395 277.476 C 352.375 277.476, 334.938 277.599, 356.250 277.750 M 474.500 277.865 C 477.426 279.084, 483.814 280.145, 482 279.111 C 481.175 278.641, 478.700 277.981, 476.500 277.645 C 473.977 277.259, 473.239 277.340, 474.500 277.865 M 215.027 284.648 C 216.387 285.554, 219.512 288.142, 221.972 290.398 C 225.664 293.785, 225.375 292.621, 221.500 288.498 C 219.923 286.820, 214.276 283, 213.373 283 C 212.923 283, 213.668 283.742, 215.027 284.648 M 15 286.500 C 14.306 287.337, 14.197 288, 14.755 288 C 15.305 288, 16.315 287.325, 17 286.500 C 17.694 285.663, 17.803 285, 17.245 285 C 16.695 285, 15.685 285.675, 15 286.500 M 290.918 288.286 C 287.361 291.335, 282.583 297.916, 283.361 298.694 C 283.712 299.046, 284 298.845, 284 298.247 C 284 297.650, 286.295 294.650, 289.100 291.581 C 294.566 285.601, 295.028 284.762, 290.918 288.286 M 510.606 310.171 C 510.996 310.803, 511.247 313.073, 511.163 315.216 C 511.071 317.555, 511.404 318.868, 511.996 318.503 C 513.490 317.579, 512.903 310.177, 511.286 309.556 C 510.419 309.223, 510.163 309.455, 510.606 310.171 M 234.476 394.500 C 234.476 436.850, 234.599 454.029, 234.750 432.676 C 234.900 411.323, 234.900 376.673, 234.750 355.676 C 234.599 334.679, 234.476 352.150, 234.476 394.500 M 277.476 395 C 277.476 437.625, 277.599 455.063, 277.750 433.750 C 277.900 412.438, 277.900 377.563, 277.750 356.250 C 277.599 334.938, 277.476 352.375, 277.476 395 M 0.232 473 C 0.232 474.925, 0.438 475.712, 0.689 474.750 C 0.941 473.788, 0.941 472.212, 0.689 471.250 C 0.438 470.288, 0.232 471.075, 0.232 473 M 511.438 473.750 C 511.642 476.087, 511.402 478.251, 510.905 478.559 C 510.407 478.866, 510 479.642, 510 480.282 C 510 480.921, 510.622 480.557, 511.383 479.471 C 512.395 478.026, 512.538 476.423, 511.916 473.498 L 511.066 469.500 511.438 473.750 M 277.170 474 C 277.186 474.825, 277.560 476.625, 278 478 C 278.644 480.010, 278.806 480.108, 278.830 478.500 C 278.846 477.400, 278.473 475.600, 278 474.500 C 277.473 473.275, 277.152 473.081, 277.170 474 M 233.660 475.750 C 232.423 480.313, 232.020 483.419, 232.849 482 C 233.835 480.312, 235.171 474, 234.542 474 C 234.318 474, 233.921 474.788, 233.660 475.750 M 228.778 490.065 C 227.851 491.679, 227.450 493, 227.886 493 C 228.708 493, 231.310 487.977, 230.769 487.435 C 230.600 487.267, 229.704 488.450, 228.778 490.065 M 4 488.723 C 4 489.303, 4.927 490.841, 6.059 492.139 L 8.119 494.500 6.362 491.500 C 4.050 487.552, 4 487.493, 4 488.723 M 505.778 491.065 C 504.851 492.679, 504.450 494, 504.886 494 C 505.708 494, 508.310 488.977, 507.769 488.435 C 507.600 488.267, 506.704 489.450, 505.778 491.065 M 285 494.755 C 285 495.305, 285.675 496.315, 286.500 497 C 287.337 497.694, 288 497.803, 288 497.245 C 288 496.695, 287.325 495.685, 286.500 495 C 285.663 494.306, 285 494.197, 285 494.755 M 9 496.227 C 9 497.101, 15.166 503.167, 15.607 502.727 C 15.807 502.527, 14.402 500.843, 12.485 498.985 C 10.568 497.128, 9 495.886, 9 496.227 M 498.453 500.203 C 496.279 502.514, 495.389 503.752, 496.475 502.953 C 498.593 501.395, 503 496.938, 503 496.354 C 503 495.540, 502.207 496.212, 498.453 500.203 M 294.273 504 C 295.671 505.100, 297.143 506, 297.543 506 C 297.943 506, 297.126 505.100, 295.727 504 C 294.329 502.900, 292.857 502, 292.457 502 C 292.057 502, 292.874 502.900, 294.273 504 M 490.500 506.068 C 488.850 507.125, 488.013 507.992, 488.639 507.995 C 489.266 507.998, 490.841 507.115, 492.139 506.033 C 495.112 503.556, 494.397 503.572, 490.500 506.068" stroke="none" fill="#2efcfc" fill-rule="evenodd"/><path d="M 34 1.006 C 33.175 1.527, 31.712 1.709, 30.750 1.410 C 29.788 1.110, 29 1.331, 29 1.901 C 29 2.471, 28.325 2.678, 27.500 2.362 C 26.675 2.045, 26 2.311, 26 2.952 C 26 3.593, 25.550 3.840, 25 3.500 C 24.450 3.160, 24 3.385, 24 4 C 24 4.615, 23.550 4.840, 23 4.500 C 22.450 4.160, 22 4.262, 22 4.725 C 22 5.661, 15.867 9.569, 14.869 9.269 C 14.522 9.165, 13.440 9.962, 12.464 11.040 C 11.488 12.118, 10.982 13, 11.338 13 C 11.695 13, 10.448 15.016, 8.567 17.480 C 6.686 19.944, 4.859 22.869, 4.506 23.980 C 4.154 25.091, 3.397 26, 2.826 26 C 2.254 26, 2.045 26.675, 2.362 27.500 C 2.678 28.325, 2.549 29, 2.074 29 C 1.600 29, 1.118 30.012, 1.004 31.250 C 0.248 39.465, 0.261 202, 1.018 202 C 1.524 202, 1.678 202.675, 1.362 203.500 C 1.045 204.326, 1.332 205, 2 205 C 2.668 205, 2.955 205.674, 2.638 206.500 C 2.322 207.325, 2.525 208, 3.090 208 C 3.656 208, 3.840 208.450, 3.500 209 C 3.160 209.550, 3.385 210, 4 210 C 4.615 210, 4.840 210.450, 4.500 211 C 4.160 211.550, 4.385 212, 5 212 C 5.615 212, 5.840 212.450, 5.500 213 C 5.160 213.550, 5.434 214, 6.108 214 C 6.782 214, 7.036 214.297, 6.673 214.660 C 6.310 215.023, 6.910 215.949, 8.006 216.717 C 9.103 217.485, 10 218.663, 10 219.334 C 10 220.697, 13.508 224, 14.955 224 C 15.467 224, 16.515 224.897, 17.283 225.994 C 18.051 227.090, 18.966 227.701, 19.316 227.351 C 19.666 227, 20.236 227.451, 20.581 228.351 C 20.927 229.252, 21.576 229.762, 22.024 229.485 C 22.472 229.208, 23.547 229.689, 24.412 230.555 C 25.277 231.420, 26.438 231.847, 26.992 231.505 C 27.547 231.162, 28.001 231.246, 28.002 231.691 C 28.003 232.136, 29.668 232.619, 31.702 232.765 C 33.736 232.911, 35.648 233.361, 35.950 233.765 C 36.735 234.814, 198 234.682, 198 233.633 C 198 233.157, 198.900 233.002, 199.999 233.289 C 201.098 233.577, 202.269 233.374, 202.600 232.838 C 202.931 232.302, 203.865 232.118, 204.675 232.429 C 205.486 232.740, 206.826 232.316, 207.655 231.488 C 208.483 230.659, 209.575 230.237, 210.081 230.550 C 210.586 230.862, 211 230.615, 211 230 C 211 229.385, 211.412 229.136, 211.915 229.447 C 212.418 229.758, 212.980 229.672, 213.165 229.256 C 213.866 227.676, 220.785 223.119, 221.460 223.793 C 221.849 224.182, 222.017 223.825, 221.833 223 C 221.649 222.170, 222.091 221.623, 222.824 221.775 C 223.553 221.926, 223.878 221.611, 223.546 221.075 C 223.215 220.539, 223.869 219.605, 225 219 C 226.131 218.395, 226.790 217.469, 226.465 216.943 C 226.139 216.416, 226.574 215.717, 227.431 215.388 C 228.288 215.059, 228.740 214.388, 228.435 213.895 C 228.131 213.403, 228.385 213, 229 213 C 229.615 213, 229.840 212.550, 229.500 212 C 229.160 211.450, 229.385 211, 230 211 C 230.615 211, 230.881 210.616, 230.591 210.147 C 230.301 209.678, 230.675 208.460, 231.421 207.439 C 232.167 206.419, 232.572 205.048, 232.321 204.393 C 232.069 203.738, 232.302 202.931, 232.838 202.600 C 233.374 202.269, 233.577 201.098, 233.289 199.999 C 233.002 198.900, 233.157 198, 233.633 198 C 234.801 198, 234.235 38.601, 233.049 33.555 C 232.540 31.386, 232.347 29.248, 232.620 28.805 C 232.894 28.362, 232.615 28, 232 28 C 231.385 28, 231.162 27.547, 231.505 26.992 C 231.847 26.438, 231.420 25.277, 230.555 24.412 C 229.689 23.547, 229.208 22.472, 229.485 22.024 C 229.762 21.576, 229.288 20.941, 228.431 20.612 C 227.574 20.283, 227.153 19.561, 227.496 19.007 C 227.838 18.453, 227.615 18, 227 18 C 226.385 18, 226.203 17.480, 226.595 16.845 C 227.039 16.128, 226.870 15.963, 226.147 16.409 C 225.479 16.822, 224.697 16.375, 224.307 15.358 C 223.316 12.774, 220.741 10, 219.334 10 C 218.663 10, 217.485 9.103, 216.717 8.006 C 215.949 6.910, 215.023 6.310, 214.660 6.673 C 214.297 7.036, 214 6.808, 214 6.167 C 214 5.525, 213.662 5.053, 213.250 5.118 C 211.351 5.418, 209.932 4.920, 210.423 4.125 C 210.720 3.644, 209.796 3.250, 208.368 3.250 C 206.941 3.250, 205.424 2.686, 204.998 1.997 C 204.572 1.308, 203.723 1.053, 203.112 1.431 C 202.500 1.809, 202 1.670, 202 1.122 C 202 -0.206, 36.098 -0.322, 34 1.006 M 310 1.022 C 310 1.526, 309.325 1.678, 308.500 1.362 C 307.674 1.045, 307 1.332, 307 2 C 307 2.668, 306.326 2.955, 305.500 2.638 C 304.675 2.322, 304 2.485, 304 3 C 304 3.515, 303.329 3.680, 302.508 3.365 C 301.658 3.039, 300.753 3.479, 300.404 4.391 C 300.066 5.269, 299.388 5.740, 298.895 5.435 C 298.403 5.131, 298 5.434, 298 6.108 C 298 6.782, 297.703 7.036, 297.340 6.673 C 296.977 6.310, 296.051 6.910, 295.283 8.006 C 294.515 9.103, 293.300 10, 292.583 10 C 291.867 10, 290.430 11.203, 289.390 12.674 C 288.351 14.145, 286.375 16.468, 285 17.838 C 283.625 19.207, 283.175 19.995, 284 19.589 C 284.924 19.135, 284.834 19.398, 283.766 20.275 C 282.812 21.057, 282.324 21.991, 282.682 22.349 C 283.040 22.707, 282.782 23, 282.108 23 C 281.434 23, 281.160 23.450, 281.500 24 C 281.840 24.550, 281.656 25, 281.090 25 C 280.525 25, 280.322 25.675, 280.638 26.500 C 280.955 27.325, 280.730 28, 280.138 28 C 279.547 28, 279.322 28.675, 279.638 29.500 C 279.955 30.325, 279.828 31, 279.357 31 C 278.886 31, 278.450 32.237, 278.388 33.750 C 277.915 45.369, 278.069 197.016, 278.555 198.283 C 278.897 199.174, 278.905 200.345, 278.572 200.883 C 278.240 201.421, 278.455 202.163, 279.052 202.532 C 279.648 202.901, 279.882 203.865, 279.571 204.675 C 279.260 205.486, 279.684 206.826, 280.512 207.655 C 281.341 208.483, 281.763 209.575, 281.450 210.081 C 281.138 210.586, 281.385 211, 282 211 C 282.615 211, 282.840 211.450, 282.500 212 C 282.160 212.550, 282.250 213, 282.700 213 C 283.151 213, 284.110 213.947, 284.833 215.105 C 285.922 216.848, 285.920 217.092, 284.824 216.529 C 284.096 216.155, 285.187 217.276, 287.249 219.021 C 289.312 220.766, 290.741 222.611, 290.425 223.121 C 290.110 223.632, 290.275 223.926, 290.793 223.775 C 291.312 223.624, 292.729 224.625, 293.944 226 C 295.159 227.375, 295.860 227.825, 295.502 227 C 295.069 226.001, 295.327 226.079, 296.275 227.234 C 297.057 228.188, 297.991 228.676, 298.349 228.318 C 298.707 227.960, 299 228.218, 299 228.892 C 299 229.566, 299.450 229.840, 300 229.500 C 300.550 229.160, 301 229.385, 301 230 C 301 230.615, 301.384 230.881, 301.853 230.591 C 302.322 230.301, 303.540 230.675, 304.561 231.421 C 305.581 232.167, 306.952 232.572, 307.607 232.321 C 308.262 232.069, 309.069 232.302, 309.400 232.838 C 309.731 233.374, 310.902 233.577, 312.001 233.289 C 313.100 233.002, 314 233.157, 314 233.633 C 314 234.682, 475.265 234.814, 476.050 233.765 C 476.352 233.361, 478.264 232.911, 480.298 232.765 C 482.332 232.619, 483.997 232.177, 483.998 231.781 C 483.999 231.386, 484.675 231.322, 485.500 231.638 C 486.349 231.964, 487 231.662, 487 230.940 C 487 230.240, 487.273 229.940, 487.606 230.273 C 487.940 230.607, 489.133 230.022, 490.258 228.974 C 491.383 227.927, 492.685 227.305, 493.151 227.594 C 493.618 227.882, 494 227.615, 494 227 C 494 226.385, 494.461 226.167, 495.025 226.515 C 495.588 226.864, 495.926 226.573, 495.775 225.870 C 495.624 225.166, 495.950 224.563, 496.500 224.529 C 498.048 224.432, 502 220.701, 502 219.334 C 502 218.663, 502.897 217.485, 503.994 216.717 C 505.090 215.949, 505.690 215.023, 505.327 214.660 C 504.964 214.297, 505.218 214, 505.892 214 C 506.566 214, 506.840 213.550, 506.500 213 C 506.160 212.450, 506.385 212, 507 212 C 507.615 212, 507.840 211.550, 507.500 211 C 507.160 210.450, 507.385 210, 508 210 C 508.615 210, 508.840 209.550, 508.500 209 C 508.160 208.450, 508.344 208, 508.910 208 C 509.475 208, 509.678 207.325, 509.362 206.500 C 509.045 205.675, 509.256 205, 509.831 205 C 510.406 205, 510.959 204.212, 511.061 203.250 C 511.163 202.287, 511.402 163.954, 511.592 118.065 C 511.841 57.889, 511.627 34.256, 510.826 33.290 C 510.215 32.554, 510 31.666, 510.349 31.318 C 510.697 30.969, 510.481 30.080, 509.869 29.342 C 509.256 28.604, 509.090 28, 509.500 28 C 509.910 28, 509.685 27.325, 509 26.500 C 508.315 25.675, 508.148 24.993, 508.628 24.985 C 509.107 24.976, 509.040 24.639, 508.477 24.235 C 506.688 22.950, 503.655 17.683, 505.146 18.451 C 505.891 18.835, 505.600 18.408, 504.500 17.504 C 503.400 16.599, 502.613 15.441, 502.750 14.929 C 502.888 14.418, 502.458 14.112, 501.795 14.250 C 501.133 14.387, 500.570 13.825, 500.545 13 C 500.520 12.175, 499.895 11.500, 499.155 11.500 C 498.416 11.500, 496.679 10.150, 495.295 8.500 C 493.912 6.850, 493.088 6.175, 493.464 7 C 494.072 8.333, 494.001 8.333, 492.821 7 C 492.090 6.175, 490.824 5.351, 490.006 5.170 C 489.188 4.988, 488.184 4.313, 487.775 3.670 C 487.365 3.026, 487.024 2.893, 487.015 3.372 C 487.007 3.852, 486.396 3.744, 485.658 3.131 C 484.920 2.519, 484.020 2.313, 483.658 2.675 C 483.296 3.037, 483 2.856, 483 2.272 C 483 1.689, 481.988 1.116, 480.750 0.999 C 472.744 0.244, 310 0.266, 310 1.022 M 36.706 278.305 C 35.508 278.748, 33.735 278.902, 32.764 278.649 C 31.794 278.395, 31 278.643, 31 279.201 C 31 279.758, 30.325 279.955, 29.500 279.638 C 28.675 279.322, 28 279.547, 28 280.138 C 28 280.730, 27.354 280.966, 26.565 280.663 C 25.775 280.360, 24.988 280.503, 24.815 280.981 C 24.642 281.459, 23.827 281.996, 23.004 282.175 C 22.181 282.354, 20.910 283.175, 20.179 284 C 18.999 285.333, 18.924 285.333, 19.500 284 C 19.857 283.175, 19.177 283.738, 17.991 285.250 C 16.804 286.762, 15.426 288, 14.928 288 C 13.502 288, 10 291.316, 10 292.666 C 10 293.337, 9.103 294.515, 8.006 295.283 C 6.910 296.051, 6.310 296.977, 6.673 297.340 C 7.036 297.703, 6.782 298, 6.108 298 C 5.434 298, 5.160 298.450, 5.500 299 C 5.840 299.550, 5.615 300, 5 300 C 4.385 300, 4.160 300.450, 4.500 301 C 4.840 301.550, 4.615 302, 4 302 C 3.385 302, 3.160 302.450, 3.500 303 C 3.840 303.550, 3.656 304, 3.090 304 C 2.525 304, 2.350 304.749, 2.701 305.664 C 3.166 306.874, 2.978 307.104, 2.012 306.508 C 1.017 305.892, 0.826 306.226, 1.249 307.844 C 1.559 309.030, 1.427 310, 0.956 310 C 0.258 310, 0.304 473.147, 1.004 480.750 C 1.118 481.988, 1.600 483, 2.074 483 C 2.549 483, 2.678 483.675, 2.362 484.500 C 2.045 485.325, 2.311 486, 2.952 486 C 3.593 486, 3.840 486.450, 3.500 487 C 3.160 487.550, 3.246 488.003, 3.691 488.006 C 4.136 488.010, 5.279 489.381, 6.230 491.053 C 7.227 492.805, 7.439 493.783, 6.730 493.360 C 6.054 492.956, 8.200 495.263, 11.500 498.485 C 14.800 501.707, 17.823 504.379, 18.218 504.422 C 18.612 504.465, 19.812 505.251, 20.883 506.168 C 21.954 507.085, 23.094 507.573, 23.415 507.251 C 23.737 506.930, 24 507.218, 24 507.892 C 24 508.566, 24.450 508.840, 25 508.500 C 25.550 508.160, 26 508.407, 26 509.048 C 26 509.689, 26.661 509.960, 27.468 509.651 C 28.275 509.341, 29.206 509.525, 29.537 510.060 C 29.868 510.595, 30.577 510.762, 31.113 510.430 C 31.649 510.099, 32.665 510.307, 33.371 510.893 C 34.264 511.634, 60.029 511.849, 118.077 511.600 C 163.960 511.403, 202.287 511.159, 203.250 511.059 C 204.212 510.958, 205 510.406, 205 509.831 C 205 509.256, 205.675 509.045, 206.500 509.362 C 207.325 509.678, 208 509.426, 208 508.802 C 208 508.178, 208.279 507.945, 208.619 508.286 C 208.960 508.626, 209.896 508.247, 210.700 507.443 C 211.504 506.639, 212.575 506.237, 213.081 506.550 C 213.586 506.862, 214 506.566, 214 505.892 C 214 505.218, 214.297 504.964, 214.660 505.327 C 215.023 505.690, 215.949 505.090, 216.717 503.994 C 217.485 502.897, 218.663 502, 219.334 502 C 220.741 502, 223.316 499.226, 224.307 496.642 C 224.697 495.625, 225.479 495.178, 226.147 495.591 C 226.870 496.037, 227.039 495.872, 226.595 495.155 C 226.203 494.520, 226.359 494, 226.941 494 C 227.523 494, 227.921 493.663, 227.825 493.250 C 227.528 491.973, 230.267 487, 231.268 487 C 231.788 487, 231.955 486.325, 231.638 485.500 C 231.322 484.675, 231.525 484, 232.090 484 C 232.656 484, 232.894 483.638, 232.620 483.195 C 232.347 482.752, 232.540 480.614, 233.049 478.445 C 234.235 473.399, 234.801 314, 233.633 314 C 233.157 314, 233.002 313.100, 233.289 312.001 C 233.577 310.902, 233.374 309.731, 232.838 309.400 C 232.302 309.069, 232.069 308.262, 232.321 307.607 C 232.572 306.952, 232.167 305.581, 231.421 304.561 C 230.675 303.540, 230.301 302.322, 230.591 301.853 C 230.881 301.384, 230.615 301, 230 301 C 229.385 301, 229.160 300.550, 229.500 300 C 229.840 299.450, 229.750 299, 229.300 299 C 228.849 299, 227.890 298.053, 227.167 296.895 C 226.078 295.152, 226.080 294.907, 227.176 295.470 C 227.904 295.843, 227.260 295.176, 225.745 293.987 C 224.230 292.798, 223.250 291.404, 223.569 290.888 C 223.888 290.372, 223.553 290.074, 222.824 290.225 C 222.096 290.376, 221.613 289.937, 221.750 289.250 C 221.888 288.562, 221.663 288.109, 221.250 288.242 C 219.947 288.663, 215.978 285.358, 216.756 284.500 C 217.165 284.049, 216.964 283.986, 216.310 284.362 C 215.655 284.737, 214.227 284.087, 213.136 282.916 C 212.046 281.745, 210.735 281.046, 210.224 281.362 C 209.713 281.677, 208.460 281.325, 207.439 280.579 C 206.419 279.833, 205.048 279.428, 204.393 279.679 C 203.738 279.931, 202.931 279.698, 202.600 279.162 C 202.269 278.626, 201.098 278.423, 199.999 278.711 C 198.900 278.998, 198 278.843, 198 278.367 C 198 277.272, 39.664 277.211, 36.706 278.305 M 314 278.367 C 314 278.843, 313.100 278.998, 312.001 278.711 C 310.902 278.423, 309.731 278.626, 309.400 279.162 C 309.069 279.698, 308.262 279.931, 307.607 279.679 C 306.952 279.428, 305.581 279.833, 304.561 280.579 C 303.540 281.325, 302.322 281.699, 301.853 281.409 C 301.384 281.119, 301 281.385, 301 282 C 301 282.615, 300.550 282.840, 300 282.500 C 299.450 282.160, 299 282.434, 299 283.108 C 299 283.782, 298.707 284.040, 298.349 283.682 C 297.991 283.324, 297.057 283.812, 296.275 284.766 C 295.325 285.923, 295.067 286.001, 295.500 285 C 295.857 284.175, 295.176 284.740, 293.987 286.255 C 292.798 287.770, 291.404 288.750, 290.888 288.431 C 290.372 288.112, 290.074 288.244, 290.225 288.723 C 290.642 290.044, 285.335 295.991, 284.451 295.195 C 284.027 294.813, 283.981 295.026, 284.349 295.669 C 284.717 296.313, 284.361 297.496, 283.557 298.300 C 282.753 299.104, 282.374 300.040, 282.714 300.381 C 283.055 300.721, 282.782 301, 282.108 301 C 281.434 301, 281.119 301.384, 281.409 301.853 C 281.699 302.322, 281.325 303.540, 280.579 304.561 C 279.833 305.581, 279.428 306.952, 279.679 307.607 C 279.931 308.262, 279.675 309.083, 279.112 309.431 C 278.548 309.779, 278.333 310.703, 278.632 311.484 C 278.932 312.265, 278.897 313.357, 278.555 313.911 C 278.069 314.698, 277.915 466.623, 278.388 478.250 C 278.450 479.762, 278.886 481, 279.357 481 C 279.828 481, 279.955 481.675, 279.638 482.500 C 279.322 483.325, 279.525 484, 280.090 484 C 280.656 484, 280.809 484.500, 280.431 485.112 C 280.053 485.723, 280.215 486.515, 280.792 486.871 C 281.368 487.227, 281.988 488.188, 282.170 489.006 C 282.351 489.824, 283.175 491.090, 284 491.821 C 285.333 493.001, 285.333 493.076, 284 492.500 C 283.175 492.143, 283.738 492.823, 285.250 494.009 C 286.762 495.196, 288 496.574, 288 497.072 C 288 498.427, 291.286 502, 292.532 502 C 293.131 502, 295.039 503.387, 296.773 505.082 C 298.507 506.777, 300.392 507.876, 300.963 507.523 C 301.533 507.170, 302 507.385, 302 508 C 302 508.615, 302.450 508.840, 303 508.500 C 303.550 508.160, 304 508.344, 304 508.910 C 304 509.475, 304.675 509.678, 305.500 509.362 C 306.325 509.045, 307 509.256, 307 509.831 C 307 510.406, 307.788 510.958, 308.750 511.059 C 309.712 511.159, 348.040 511.403, 393.923 511.600 C 454.572 511.860, 477.714 511.652, 478.697 510.837 C 479.440 510.220, 480.334 510, 480.682 510.349 C 481.031 510.697, 481.920 510.481, 482.658 509.869 C 483.396 509.256, 484 509.090, 484 509.500 C 484 509.910, 484.675 509.685, 485.500 509 C 486.325 508.315, 487.007 508.148, 487.015 508.628 C 487.024 509.107, 487.361 509.040, 487.765 508.477 C 489.050 506.688, 494.317 503.655, 493.549 505.146 C 493.165 505.891, 493.592 505.600, 494.496 504.500 C 495.401 503.400, 496.559 502.613, 497.071 502.750 C 497.582 502.888, 497.888 502.458, 497.750 501.795 C 497.613 501.133, 498.025 500.570, 498.667 500.545 C 499.308 500.520, 500.208 500.090, 500.667 499.590 C 501.157 499.054, 500.882 498.984, 500 499.420 C 499.175 499.828, 499.850 498.925, 501.500 497.414 C 503.150 495.902, 504.532 494.404, 504.571 494.083 C 504.772 492.446, 507.438 488, 508.220 488 C 508.714 488, 508.859 487.581, 508.543 487.069 C 508.226 486.557, 508.432 485.851, 509 485.500 C 509.568 485.149, 509.793 484.474, 509.500 484 C 509.207 483.526, 509.432 482.851, 510 482.500 C 510.568 482.149, 510.762 481.423, 510.430 480.887 C 510.099 480.351, 510.302 479.341, 510.882 478.642 C 511.610 477.766, 511.830 451.458, 511.592 393.935 C 511.402 348.046, 511.163 309.712, 511.061 308.750 C 510.959 307.788, 510.406 307, 509.831 307 C 509.256 307, 509.045 306.325, 509.362 305.500 C 509.678 304.675, 509.515 304, 509 304 C 508.485 304, 508.308 303.360, 508.609 302.577 C 508.909 301.795, 508.220 300.220, 507.077 299.077 C 505.935 297.935, 505.325 297, 505.723 297 C 506.120 297, 505.445 296.299, 504.223 295.443 C 503 294.587, 502 293.490, 502 293.005 C 502 292.520, 500.590 290.633, 498.868 288.812 C 497.145 286.990, 496.054 286.175, 496.444 287 C 496.833 287.825, 496.274 287.507, 495.200 286.293 C 494.127 285.078, 492.978 284.355, 492.648 284.686 C 492.317 285.016, 491.764 284.549, 491.419 283.649 C 491.073 282.748, 490.388 282.260, 489.895 282.565 C 489.403 282.869, 489 282.615, 489 282 C 489 281.385, 488.550 281.160, 488 281.500 C 487.450 281.840, 487 281.593, 487 280.952 C 487 280.311, 486.325 280.045, 485.500 280.362 C 484.675 280.678, 484 280.475, 484 279.910 C 484 279.344, 483.638 279.106, 483.196 279.379 C 482.754 279.652, 480.521 279.455, 478.234 278.941 C 472.929 277.749, 314 277.193, 314 278.367" stroke="none" fill="#fbfcfc" fill-rule="evenodd"/></svg>