<svg xmlns="http://www.w3.org/2000/svg" width="512" height="512" viewBox="0 0 512 512" version="1.1"><path d="" stroke="none" fill="#209c84" fill-rule="evenodd"/><path d="M 101.568 1.532 C 82.364 6.802, 65.975 23.991, 62.031 43 C 61.191 47.047, 60.970 104.129, 61.195 259 L 61.500 469.500 63.754 475.500 C 70.384 493.144, 86.399 507.253, 104 510.957 C 108.062 511.811, 148.584 512.034, 259 511.807 L 408.500 511.500 414.500 509.246 C 431.570 502.832, 444.935 488.197, 449.547 470.869 C 451.739 462.633, 451.705 141.126, 449.511 132.703 C 447.610 125.405, 443.146 116.561, 438.642 111.171 C 436.703 108.849, 412.073 85.157, 383.908 58.520 C 341.669 18.573, 331.527 9.474, 326.008 6.573 C 312.910 -0.309, 318.408 -0.010, 207.040 0.089 C 125.821 0.162, 105.552 0.439, 101.568 1.532 M 110.718 31.092 C 105.119 32.410, 101.763 34.413, 97.796 38.805 C 91.028 46.296, 91.500 30.005, 91.500 256 C 91.500 428.334, 91.723 462.132, 92.882 465.416 C 94.838 470.955, 101.286 477.559, 106.829 479.697 C 111.252 481.404, 119.170 481.500, 256 481.500 C 375.832 481.500, 401.162 481.266, 404.381 480.129 C 409.661 478.264, 415.883 472.441, 418.410 467 C 420.498 462.504, 420.500 462.360, 420.765 306.250 L 421.031 150 372.053 150 C 314.475 150, 316.220 150.272, 305.421 139.603 C 294.805 129.114, 295 130.305, 295 75.962 L 295 30 204.750 30.100 C 155.112 30.156, 112.798 30.602, 110.718 31.092 M 325 80.878 C 325 114.667, 325.076 116.076, 327 118 C 328.929 119.929, 330.333 120, 366.446 120 L 403.892 120 394.196 110.685 C 378.095 95.216, 328.624 48.597, 326.750 47.128 C 325.090 45.826, 325 47.571, 325 80.878 M 135.241 201.995 C 130.683 204.773, 128.007 209.584, 128.007 215 C 128.007 220.416, 130.683 225.227, 135.241 228.005 C 138.443 229.958, 140.507 229.993, 253 229.993 C 365.493 229.993, 367.557 229.958, 370.759 228.005 C 380.418 222.116, 380.418 207.884, 370.759 201.995 C 367.557 200.042, 365.493 200.007, 253 200.007 C 140.507 200.007, 138.443 200.042, 135.241 201.995 M 135.241 281.995 C 130.683 284.773, 128.007 289.584, 128.007 295 C 128.007 300.416, 130.683 305.227, 135.241 308.005 C 138.443 309.958, 140.507 309.993, 253 309.993 C 365.493 309.993, 367.557 309.958, 370.759 308.005 C 380.418 302.116, 380.418 287.884, 370.759 281.995 C 367.557 280.042, 365.493 280.007, 253 280.007 C 140.507 280.007, 138.443 280.042, 135.241 281.995 M 135.241 361.995 C 130.683 364.773, 128.007 369.584, 128.007 375 C 128.007 380.416, 130.683 385.227, 135.241 388.005 C 138.353 389.903, 140.352 389.993, 179.602 389.996 C 220.672 390, 220.707 389.998, 224.102 387.730 C 233.132 381.698, 233.132 368.302, 224.102 362.270 C 220.707 360.002, 220.672 360, 179.602 360.004 C 140.352 360.007, 138.353 360.097, 135.241 361.995" stroke="none" fill="#1c9c84" fill-rule="evenodd"/></svg>