<svg xmlns="http://www.w3.org/2000/svg" width="512" height="512" viewBox="0 0 512 512" version="1.1"><path d="M 241.798 49.931 C 230.479 53.550, 221.941 59.955, 215.808 69.428 C 205.653 85.114, 205.355 106.022, 215.065 121.500 C 219.434 128.464, 222.571 131.664, 229.428 136.151 C 247.929 148.257, 273.029 146.163, 289.386 131.149 C 298.055 123.191, 304 108.892, 304 96 C 304 68.773, 282.923 47.874, 255.645 48.054 C 250.656 48.087, 245.291 48.814, 241.798 49.931 M 241.798 209.931 C 230.479 213.550, 221.941 219.955, 215.808 229.428 C 205.653 245.114, 205.355 266.022, 215.065 281.500 C 219.434 288.464, 222.571 291.664, 229.428 296.151 C 247.929 308.257, 273.029 306.163, 289.386 291.149 C 298.055 283.191, 304 268.892, 304 256 C 304 228.773, 282.923 207.874, 255.645 208.054 C 250.656 208.087, 245.291 208.814, 241.798 209.931 M 241.798 369.931 C 230.479 373.550, 221.941 379.955, 215.808 389.428 C 205.653 405.114, 205.355 426.022, 215.065 441.500 C 219.434 448.464, 222.571 451.664, 229.428 456.151 C 247.929 468.257, 273.029 466.163, 289.386 451.149 C 298.055 443.191, 304 428.892, 304 416 C 304 388.773, 282.923 367.874, 255.645 368.054 C 250.656 368.087, 245.291 368.814, 241.798 369.931" stroke="none" fill="#fffcfc" fill-rule="evenodd"/><path d="" stroke="none" fill="#fcfcfc" fill-rule="evenodd"/></svg>