<svg xmlns="http://www.w3.org/2000/svg" width="512" height="512" viewBox="0 0 512 512" version="1.1"><path d="M 233.500 1.662 C 229.108 3.977, 226.054 7.016, 223.903 11.210 C 222.060 14.804, 222 19.236, 222 152.705 L 222 290.490 184.750 253.342 C 164.262 232.910, 146.060 215.475, 144.300 214.597 C 139.859 212.381, 130.829 212.534, 126.210 214.903 C 124.170 215.949, 116.833 222.587, 109.907 229.653 C 98.519 241.270, 97.194 242.998, 96.068 247.706 C 94.622 253.745, 95.266 257.881, 98.536 263.572 C 99.823 265.812, 133.642 300.063, 173.690 339.686 C 244.969 410.210, 246.610 411.751, 251.536 412.807 C 257.334 414.051, 262.330 413.208, 267.189 410.166 C 269.010 409.026, 302.734 375.785, 342.131 336.297 C 404.219 274.065, 413.995 263.867, 415.517 259.750 C 417.502 254.377, 417.086 248.045, 414.398 242.733 C 411.925 237.846, 389.783 216.227, 385.328 214.350 C 380.293 212.229, 372.328 212.276, 367.977 214.454 C 366.064 215.411, 347.962 232.685, 327.750 252.842 L 291 289.490 291 154.426 C 291 5.354, 291.301 12.527, 284.777 6.335 C 278.431 0.311, 276.982 -0.004, 255.800 0.040 C 240.190 0.072, 235.926 0.382, 233.500 1.662 M 65.107 444.497 C 59.044 446.397, 53.297 452.262, 51.470 458.414 C 49.698 464.379, 49.442 489.899, 51.088 496.436 C 52.442 501.812, 56.984 507.441, 62.057 510.029 C 65.861 511.970, 68.827 512, 256 512 C 443.173 512, 446.139 511.970, 449.943 510.029 C 455.566 507.161, 459.736 501.589, 461.070 495.163 C 461.739 491.941, 462.059 483.313, 461.852 474.102 C 461.515 459.155, 461.383 458.302, 458.723 453.777 C 456.923 450.714, 454.286 448.077, 451.223 446.277 L 446.500 443.500 258 443.310 C 100.365 443.152, 68.781 443.346, 65.107 444.497" stroke="none" fill="#fffcfc" fill-rule="evenodd"/><path d="" stroke="none" fill="#fcfcfc" fill-rule="evenodd"/></svg>