<svg xmlns="http://www.w3.org/2000/svg" width="512" height="512" viewBox="0 0 512 512" version="1.1"><path d="M 450.634 43.586 C 443.328 45.355, 434.233 50.132, 430.147 54.348 L 427.042 57.552 461.844 92.344 L 496.645 127.135 500.288 123.103 C 504.680 118.241, 508.228 111.462, 510.537 103.522 C 512.851 95.560, 512.148 80.724, 509.097 73.136 C 499.811 50.048, 475.243 37.630, 450.634 43.586 M 318.907 165.746 C 266.460 218.303, 231.205 254.403, 227.837 259 C 213.804 278.152, 208.925 286.654, 195.685 315.028 C 183.990 340.090, 183.004 342.931, 183.028 351.500 C 183.058 362.498, 189.009 370.777, 198.980 373.691 C 209.588 376.791, 215.377 374.746, 250.569 355.460 C 269.007 345.356, 282.220 336.586, 297 324.641 C 303.294 319.555, 340.846 282.778, 390.752 232.824 L 474.003 149.492 439.242 114.742 L 404.481 79.992 318.907 165.746 M 9.415 436.421 C 3.521 438.988, -0.730 447.111, 0.347 453.748 C 1.163 458.781, 5.214 464.399, 9.489 466.428 C 12.910 468.051, 25.665 468.235, 198.829 469.152 C 300.948 469.693, 386.004 469.902, 387.843 469.616 C 392.024 468.965, 397.503 464.862, 399.596 460.814 C 401.865 456.426, 401.585 448.683, 399.007 444.511 C 397.847 442.635, 395.234 440.066, 393.200 438.800 L 389.500 436.500 285 435.884 C 93.423 434.756, 12.880 434.913, 9.415 436.421" stroke="none" fill="#fffcfc" fill-rule="evenodd"/><path d="" stroke="none" fill="#fcfcfc" fill-rule="evenodd"/></svg>