<svg xmlns="http://www.w3.org/2000/svg" width="512" height="512" viewBox="0 0 512 512" version="1.1"><path d="M 400.358 17.548 C 392.505 19.271, 383.644 22.880, 375.738 27.573 C 370.804 30.503, 335.726 65.047, 207.874 192.888 L 46.247 354.500 31.124 415.244 C 22.806 448.653, 16 477.835, 16 480.093 C 16 485.357, 18.440 490.465, 22.251 493.179 C 28.598 497.698, 30.280 497.422, 96.238 481 L 157.500 465.748 316.811 306.624 C 404.432 219.106, 478.132 144.851, 480.589 141.614 C 500.603 115.240, 501.223 76.498, 482.065 49.309 C 470.390 32.740, 451.772 20.621, 432.566 17.091 C 424.666 15.639, 407.982 15.876, 400.358 17.548 M 410.947 49.101 C 397.261 51.019, 390.985 55.452, 364.752 81.732 L 345.003 101.515 377.797 134.297 L 410.590 167.078 432.620 144.789 C 452.225 124.954, 455.055 121.674, 458.321 115 C 474.773 81.381, 447.849 43.929, 410.947 49.101 M 198.791 247.750 L 76.085 370.500 65.410 413.283 C 59.538 436.814, 55.003 456.336, 55.331 456.665 C 55.660 456.994, 75.220 452.442, 98.797 446.551 L 141.664 435.839 264.578 312.922 L 387.493 190.004 355.002 157.502 C 337.132 139.626, 322.283 125, 322.004 125 C 321.725 125, 266.279 180.237, 198.791 247.750" stroke="none" fill="#fffcfc" fill-rule="evenodd"/><path d="" stroke="none" fill="#fcfcfc" fill-rule="evenodd"/></svg>