<svg xmlns="http://www.w3.org/2000/svg" width="512" height="512" viewBox="0 0 512 512" version="1.1"><path d="M 30.500 1.402 C 18.795 5.114, 8.931 13.701, 3.709 24.726 L 0.500 31.500 0.240 232.753 L -0.019 434.006 2.057 440.170 C 5.495 450.375, 13.854 460.370, 22.651 464.794 C 24.768 465.859, 57.119 476.916, 94.543 489.365 C 159.780 511.067, 162.905 512, 170.324 512 C 183.362 512, 193.758 507.411, 202.702 497.708 C 211.078 488.620, 213.963 479.045, 213.985 460.250 L 214 448 250.290 448 C 289.868 448, 292.510 447.711, 304.680 442.047 C 321.484 434.226, 334.224 419.079, 339.653 400.465 C 341.175 395.250, 341.439 388.431, 341.758 346.216 C 342.164 292.326, 341.984 290.446, 335.789 284.078 C 323.637 271.587, 303.605 276.730, 299.088 293.500 C 298.393 296.082, 298.009 313.733, 298.006 343.290 C 298 386.378, 297.887 389.299, 296.092 392.790 C 293.637 397.563, 289.470 401.489, 284.782 403.447 C 281.672 404.746, 275.585 405, 247.532 405 L 214 405 214 244.136 C 214 140.570, 213.642 81.354, 212.995 77.886 C 210.467 64.341, 201.327 52.475, 188.795 46.469 L 181.556 43 231.310 43 C 274.029 43, 281.590 43.220, 284.782 44.553 C 289.470 46.511, 293.637 50.437, 296.092 55.210 C 297.863 58.653, 298 61.444, 298 94.017 C 298 117.581, 298.386 130.647, 299.175 133.779 C 300.867 140.498, 307.860 147.287, 314.806 148.953 C 322.727 150.854, 329.092 149.003, 335.019 143.076 C 341.781 136.315, 342.006 134.750, 341.965 94.807 C 341.928 58.501, 341.218 50.531, 337.095 40.184 C 331.539 26.240, 320.169 13.837, 306.824 7.166 C 291.541 -0.475, 301.170 -0.008, 160.540 0.067 C 61.655 0.119, 33.638 0.407, 30.500 1.402 M 398.748 107.427 C 393.107 109.440, 388.449 113.440, 386.102 118.289 C 384.090 122.446, 384 124.112, 384 157.316 L 384 192 338.750 192.022 C 296.840 192.042, 293.205 192.181, 289.500 193.896 C 275.838 200.221, 272.778 217.819, 283.480 228.520 C 285.748 230.788, 289.294 233.076, 291.616 233.770 C 294.603 234.663, 307.843 235, 339.866 235 L 384 235 384 269.540 C 384 302.111, 384.114 304.303, 386.001 308.002 C 391.393 318.572, 403.959 323.017, 414.500 318.084 C 417.184 316.828, 433.519 301.121, 464.138 270.356 C 513.825 220.431, 512.599 221.955, 511.815 211.118 C 511.504 206.823, 510.650 204.364, 508.289 200.974 C 506.576 198.513, 485.447 176.856, 461.337 152.848 C 419.422 111.110, 417.262 109.125, 412.068 107.598 C 405.582 105.690, 403.684 105.665, 398.748 107.427" stroke="none" fill="#fffcfc" fill-rule="evenodd"/><path d="" stroke="none" fill="#fcfcfc" fill-rule="evenodd"/></svg>