<svg xmlns="http://www.w3.org/2000/svg" width="512" height="512" viewBox="0 0 512 512" version="1.1"><path d="M 32 54.344 C 19.634 57.755, 9.449 66.197, 3.828 77.694 L 0.500 84.500 0.500 254.164 L 0.500 423.828 3.544 428.164 C 10.001 437.360, 22.108 440.128, 33.714 435.061 C 39.543 432.516, 47.310 424.894, 49.559 419.513 C 50.351 417.618, 64.951 368.301, 82.005 309.920 C 105.455 229.638, 113.911 202.033, 116.706 196.636 C 122.291 185.851, 134.955 173.540, 146 168.160 C 162.952 159.903, 149.316 160.573, 307.250 160.239 L 448 159.941 448 151.152 C 448 140.991, 446.122 133.546, 441.871 126.848 C 438.173 121.023, 430.557 113.835, 425.174 111.089 C 415.331 106.067, 414.591 106.031, 323.066 106.015 C 238.945 106, 237.566 105.968, 233.389 103.946 C 230.131 102.369, 225.973 97.982, 215.472 85.038 C 200.367 66.419, 193.971 60.841, 182.500 56.282 L 175.500 53.500 106 53.301 C 53.214 53.150, 35.418 53.401, 32 54.344 M 165 182.463 C 151.602 186.322, 141.226 194.460, 135.154 205.873 C 133.187 209.570, 121.661 247.521, 101.556 316.500 C 84.724 374.250, 70.094 423.625, 69.043 426.223 C 62.752 441.782, 47.602 454.047, 30.500 457.428 C 24.435 458.627, 49.216 458.823, 216 458.891 C 428.267 458.979, 414.870 459.369, 427.391 452.725 C 435.225 448.568, 444.713 439.120, 448.706 431.500 C 450.822 427.461, 461.680 391.799, 481.925 322.392 C 506.813 237.068, 512 218.230, 512 213.179 C 512 200.879, 505.077 189.640, 494.214 184.306 L 488.500 181.500 329 181.333 C 200.958 181.199, 168.612 181.422, 165 182.463" stroke="none" fill="#fffcfc" fill-rule="evenodd"/><path d="" stroke="none" fill="#fcfcfc" fill-rule="evenodd"/></svg>