<svg xmlns="http://www.w3.org/2000/svg" width="512" height="512" viewBox="0 0 512 512" version="1.1"><path d="M 185.500 0.662 C 134.111 6.860, 92.394 27.139, 57.982 62.647 C 26.658 94.967, 7.228 135.050, 1.391 179.385 C -0.792 195.964, -0.068 226.983, 2.863 242.524 C 12.237 292.210, 38.236 335.783, 77.140 367.006 C 106.975 390.950, 143.744 406.226, 182.974 410.974 C 193.863 412.292, 218.137 412.292, 229.026 410.974 C 264.615 406.667, 300.786 392.657, 326.969 373.040 L 332.438 368.943 401.969 438.431 C 455.535 491.964, 472.533 508.383, 476 509.938 C 492.542 517.357, 511.905 505.075, 511.978 487.116 C 512.027 475.224, 516.084 479.924, 439.316 402.961 L 368.955 332.422 373.046 326.961 C 383.891 312.487, 395.682 289.386, 401.865 270.500 C 408.880 249.076, 412 229.164, 412 205.827 C 412 111.520, 348.333 29.607, 256.741 6.072 C 240.498 1.898, 223.578 -0.026, 204.658 0.150 C 195.771 0.232, 187.150 0.463, 185.500 0.662 M 182.500 53.458 C 111.438 64.647, 56.913 123.732, 52.112 194.750 C 50.147 223.822, 55.560 250.616, 68.517 275.946 C 91.896 321.651, 135.444 352.333, 186.500 359.071 C 199.202 360.747, 225.836 359.711, 237.849 357.074 C 258.215 352.604, 278.946 343.503, 295.699 331.678 C 306.914 323.763, 323.763 306.914, 331.678 295.699 C 364.914 248.609, 369.416 186.841, 343.334 135.777 C 320.440 90.956, 276.611 59.881, 226.678 53.067 C 216.386 51.663, 192.560 51.873, 182.500 53.458" stroke="none" fill="#fffcfc" fill-rule="evenodd"/><path d="" stroke="none" fill="#fcfcfc" fill-rule="evenodd"/></svg>