<svg xmlns="http://www.w3.org/2000/svg" width="512" height="512" viewBox="0 0 512 512" version="1.1"><path d="M 178.500 29.020 C 161.905 32.321, 118.702 56.238, 105.404 69.485 C 99.630 75.237, 96 83.344, 96 90.486 C 96 92.912, 97.112 98.417, 98.471 102.719 C 104.620 122.183, 103.646 138.313, 95.369 154.102 C 86.259 171.480, 70.096 182.880, 49.467 186.478 C 38.746 188.347, 33.411 190.655, 28.530 195.536 C 19.439 204.627, 16.495 219.561, 16.511 256.500 C 16.526 291.237, 18.665 301.722, 27.483 310.287 C 32.589 315.246, 37.920 317.594, 48 319.327 C 59.552 321.313, 66.624 324.171, 75.192 330.314 C 91.957 342.336, 101.032 360.210, 100.928 381 C 100.884 389.556, 99.284 397.073, 95.132 408.225 C 91.537 417.880, 93.004 428.956, 98.855 436.318 C 108.960 449.033, 150.631 474.329, 173.476 481.615 C 187.868 486.205, 197.148 483.253, 208.514 470.468 C 221.065 456.350, 227.131 451.981, 240.510 447.427 C 251.161 443.802, 265.865 443.620, 276.500 446.982 C 289.072 450.957, 294.700 454.602, 306 466.090 C 311.775 471.960, 317.996 477.521, 319.825 478.447 C 324.550 480.837, 332.784 481.969, 338.155 480.966 C 352.220 478.338, 390.798 456.373, 408.105 441.138 C 414.333 435.657, 418.126 428.294, 418.755 420.469 C 419.182 415.142, 418.747 412.644, 415.945 404.333 C 412.959 395.476, 412.628 393.358, 412.617 383 C 412.606 373.035, 412.970 370.447, 415.342 363.610 C 418.847 353.509, 421.984 348.215, 428.918 340.704 C 438.529 330.292, 449.534 324.395, 464.809 321.472 C 474.362 319.644, 479.941 316.915, 484.549 311.814 C 492.861 302.614, 495.518 288.536, 495.461 254 C 495.403 218.268, 492.536 205.264, 482.785 196.497 C 477.835 192.046, 475.887 191.241, 461 187.499 C 432.035 180.217, 412.038 152.596, 414.319 123.018 C 414.642 118.827, 416.106 111.604, 417.571 106.965 C 422.654 90.874, 419.561 79.821, 407.035 69.312 C 384.663 50.543, 342.974 28.866, 328.997 28.734 C 318.831 28.638, 313.549 31.238, 304 41.037 C 288.370 57.077, 275.034 63.248, 256 63.248 C 236.966 63.248, 223.630 57.077, 208 41.037 C 201.127 33.984, 198.543 32.013, 194.500 30.740 C 187.580 28.562, 183.182 28.089, 178.500 29.020 M 246.160 177.081 C 219.889 180.240, 195.283 198.074, 184.037 222.107 C 176.599 238.003, 174.581 259.081, 178.925 275.500 C 186.419 303.822, 208.178 325.581, 236.500 333.075 C 247.452 335.973, 264.316 335.981, 275.500 333.093 C 303.559 325.849, 325.698 303.690, 333.042 275.500 C 335.957 264.311, 335.969 247.465, 333.070 236.500 C 322.696 197.269, 286.137 172.274, 246.160 177.081" stroke="none" fill="#fffcfc" fill-rule="evenodd"/><path d="" stroke="none" fill="#fcfcfc" fill-rule="evenodd"/></svg>