<svg xmlns="http://www.w3.org/2000/svg" width="512" height="512" viewBox="0 0 512 512" version="1.1"><path d="M 209.798 1.931 C 198.479 5.550, 189.941 11.955, 183.808 21.428 C 177.910 30.538, 176 38.034, 176 52.070 L 176 63.928 126.750 64.214 L 77.500 64.500 70.997 67.582 C 62.667 71.530, 55.530 78.667, 51.582 86.997 L 48.500 93.500 48.500 118 C 48.500 145.478, 48.531 145.608, 56.149 149.940 L 59.799 152.015 257.149 151.757 L 454.500 151.500 457.712 149.090 C 463.795 144.526, 464.168 142.546, 463.816 116.710 L 463.500 93.500 460.418 86.997 C 456.470 78.667, 449.333 71.530, 441.003 67.582 L 434.500 64.500 385.250 64.214 L 336 63.928 336 52.070 C 336 37.991, 334.077 30.485, 328.151 21.428 C 321.767 11.672, 313.474 5.465, 302.145 1.964 C 296.261 0.146, 292.810 0.004, 255.645 0.054 C 219.642 0.102, 214.912 0.296, 209.798 1.931 M 219.594 33.041 C 215.500 34.266, 210.160 39.766, 208.996 43.956 C 208.454 45.905, 208.009 51.212, 208.006 55.750 L 208 64 256 64 L 304 64 304 55.743 C 304 51.202, 303.558 45.944, 303.017 44.058 C 301.717 39.526, 296.456 34.221, 292.044 32.996 C 287.677 31.782, 223.668 31.823, 219.594 33.041 M 73.992 186.015 C 72.760 188.317, 85.087 459.261, 86.981 471.500 C 89.728 489.255, 102.410 504.139, 119.718 509.922 C 125.887 511.983, 126.976 512, 256 512 C 385.024 512, 386.113 511.983, 392.282 509.922 C 409.590 504.139, 422.272 489.255, 425.019 471.500 C 426.913 459.261, 439.240 188.317, 438.008 186.015 C 436.933 184.007, 436.342 184, 256 184 C 75.658 184, 75.067 184.007, 73.992 186.015 M 171.315 209.102 C 167.026 210.343, 162.300 215.260, 161.041 219.791 C 159.661 224.762, 159.606 431.138, 160.983 435.942 C 162.314 440.580, 167.604 445.816, 172.215 447.058 C 179.816 449.105, 188.758 443.818, 191.017 435.942 C 192.354 431.277, 192.342 224.773, 191.004 219.956 C 189.779 215.544, 184.474 210.283, 179.942 208.983 C 176 207.853, 175.613 207.858, 171.315 209.102 M 251.315 209.102 C 247.026 210.343, 242.300 215.260, 241.041 219.791 C 239.661 224.762, 239.606 431.138, 240.983 435.942 C 243.242 443.818, 252.184 449.105, 259.785 447.058 C 264.396 445.816, 269.686 440.580, 271.017 435.942 C 272.354 431.277, 272.342 224.773, 271.004 219.956 C 269.779 215.544, 264.474 210.283, 259.942 208.983 C 256 207.853, 255.613 207.858, 251.315 209.102 M 331.315 209.102 C 327.026 210.343, 322.300 215.260, 321.041 219.791 C 319.661 224.762, 319.606 431.138, 320.983 435.942 C 322.314 440.580, 327.604 445.816, 332.215 447.058 C 339.816 449.105, 348.758 443.818, 351.017 435.942 C 352.354 431.277, 352.342 224.773, 351.004 219.956 C 349.779 215.544, 344.474 210.283, 339.942 208.983 C 336 207.853, 335.613 207.858, 331.315 209.102" stroke="none" fill="#fffcfc" fill-rule="evenodd"/><path d="" stroke="none" fill="#fcfcfc" fill-rule="evenodd"/></svg>