<svg xmlns="http://www.w3.org/2000/svg" width="512" height="512" viewBox="0 0 512 512" version="1.1"><path d="M 241.994 3.161 C 236.419 5.947, 227.804 14.180, 169.423 72.513 C 93.456 148.418, 96.529 144.710, 96.511 160.500 C 96.498 171.048, 98.407 175.987, 105.117 182.764 C 111.803 189.516, 116.906 191.503, 127.500 191.481 C 141.939 191.450, 141.507 191.775, 185.750 147.668 L 224 109.535 224 217.086 C 224 312.893, 224.175 325.227, 225.605 330.040 C 229.816 344.223, 240.892 352.121, 256.667 352.191 C 269.244 352.246, 279.429 345.710, 284.880 334.086 L 287.500 328.500 288 220.333 C 288.275 160.841, 288.757 111.909, 289.072 111.594 C 289.387 111.280, 306.406 127.875, 326.892 148.472 C 370.069 191.882, 369.565 191.506, 384.500 191.491 C 392.321 191.483, 394.169 191.130, 398.608 188.796 C 410.287 182.655, 416.706 171.108, 415.763 157.932 C 414.782 144.215, 416.863 146.651, 343.106 72.898 C 267.605 -2.598, 270.709 0, 256 0 C 249.380 0, 247.446 0.436, 241.994 3.161 M 54.500 321.334 C 47.768 323.572, 44.403 325.736, 40.168 330.546 C 32.610 339.132, 32.500 339.952, 32.500 387.500 C 32.500 427.744, 32.594 429.868, 34.745 438.307 C 43.519 472.731, 66.082 497.142, 98.524 507.310 C 113.888 512.125, 113.795 512.123, 262 511.765 L 401.500 511.429 409.500 509.136 C 442.911 499.557, 467.646 475.153, 475.906 443.619 C 479.179 431.122, 480.178 414.147, 479.826 377 L 479.500 342.500 476.710 336.818 C 473.547 330.378, 468.699 325.680, 462.051 322.611 C 458.495 320.969, 455.533 320.510, 448.500 320.510 C 435.187 320.510, 427.280 324.635, 421.365 334.666 C 416.841 342.338, 416.678 343.902, 416.078 385.500 L 415.500 425.500 412.689 431.224 C 409.315 438.095, 403.546 443.295, 396.609 445.716 C 391.803 447.394, 383.424 447.500, 255.500 447.500 L 119.500 447.500 114 444.909 C 106.924 441.575, 101.533 435.947, 98.770 429.011 C 96.674 423.752, 96.550 421.672, 96.037 383.500 L 95.500 343.500 92.889 337.933 C 89.767 331.275, 84.531 325.940, 78.200 322.964 C 72.407 320.241, 60.291 319.408, 54.500 321.334" stroke="none" fill="#fffcfc" fill-rule="evenodd"/><path d="" stroke="none" fill="#fcfcfc" fill-rule="evenodd"/></svg>