<svg xmlns="http://www.w3.org/2000/svg" width="512" height="512" viewBox="0 0 512 512" version="1.1"><path d="M 187.922 1.493 C 143.961 9.796, 107.122 41.689, 93.081 83.600 C 88.870 96.167, 86.999 108.261, 87.004 122.881 C 87.015 157.502, 97.862 184.538, 121.523 208.922 C 145.113 233.233, 171.699 245.267, 205 246.708 C 226.583 247.642, 247.561 243.300, 265.646 234.156 C 292.973 220.338, 315.823 194.906, 326.622 166.290 C 335.171 143.634, 336.249 112.894, 329.330 89.007 C 323.038 67.281, 314.157 52.764, 296.598 35.500 C 278.977 18.176, 263.504 9.174, 241.313 3.335 C 232.896 1.120, 228.939 0.703, 213.500 0.407 C 200.773 0.163, 193.280 0.481, 187.922 1.493 M 93.937 248.549 C 49.410 256.614, 19.206 292.580, 6.642 352.500 C 1.528 376.889, 0.591 386.661, 0.553 416 C 0.518 443.256, 0.542 443.578, 3.271 452.307 C 6.557 462.817, 9.760 469.416, 15.499 477.500 C 27.229 494.022, 45.891 505.686, 67.739 510.149 C 76.600 511.959, 83.003 512.029, 216.749 511.768 L 356.500 511.496 364.500 509.232 C 389.116 502.267, 408.100 487.117, 418.004 466.533 C 426.409 449.068, 428.227 436.638, 426.925 405.568 C 424.472 347.071, 409.755 302.448, 384.073 275.638 C 367.540 258.380, 346.440 248.849, 321.400 247.329 C 309.067 246.580, 307.483 247.192, 285.427 261.224 C 267.264 272.779, 263.282 274.829, 250.033 279.440 C 224.979 288.161, 201.893 288.117, 176.561 279.299 C 163.617 274.794, 160.349 273.084, 140.584 260.479 C 131.479 254.672, 122.166 249.264, 119.889 248.461 C 114.831 246.676, 104.077 246.713, 93.937 248.549" stroke="none" fill="#fffcfc" fill-rule="evenodd"/><path d="" stroke="none" fill="#fcfcfc" fill-rule="evenodd"/></svg>